<svg xmlns="http://www.w3.org/2000/svg" width="520" height="164" viewBox="0 0 520 164">
  <rect width="520" height="164" rx="10" fill="#0d1117"/>
  <text x="10" y="27" font-size="19" font-weight="650" fill="#f0f6fc" font-family="-apple-system,BlinkMacSystemFont,Segoe UI,Helvetica,Arial,sans-serif">Stack</text>
  <rect x="10" y="44" width="105" height="32" rx="6" fill="#3776AB"/>
  <text x="62.5" y="64.5" text-anchor="middle" font-size="13" font-weight="650" fill="#fff" font-family="-apple-system,BlinkMacSystemFont,Segoe UI,Helvetica,Arial,sans-serif">Python</text>
  <rect x="115" y="44" width="105" height="32" rx="6" fill="#1f6feb"/>
  <text x="167.5" y="64.5" text-anchor="middle" font-size="12.5" font-weight="650" fill="#fff" font-family="-apple-system,BlinkMacSystemFont,Segoe UI,Helvetica,Arial,sans-serif">Intermediate</text>
  <rect x="236" y="44" width="90" height="32" rx="6" fill="#6e7781"/>
  <text x="281" y="64.5" text-anchor="middle" font-size="13" font-weight="650" fill="#fff" font-family="-apple-system,BlinkMacSystemFont,Segoe UI,Helvetica,Arial,sans-serif">Java</text>
  <rect x="326" y="44" width="105" height="32" rx="6" fill="#d97706"/>
  <text x="378.5" y="64.5" text-anchor="middle" font-size="12.5" font-weight="650" fill="#fff" font-family="-apple-system,BlinkMacSystemFont,Segoe UI,Helvetica,Arial,sans-serif">Intermediate</text>
  <rect x="10" y="94" width="58" height="30" rx="6" fill="#6f42c1"/><text x="39" y="113.5" text-anchor="middle" font-size="13" font-weight="600" fill="#fff" font-family="-apple-system,BlinkMacSystemFont,Segoe UI,Helvetica,Arial,sans-serif">C#</text>
  <rect x="76" y="94" width="58" height="30" rx="6" fill="#0891b2"/><text x="105" y="113.5" text-anchor="middle" font-size="13" font-weight="600" fill="#fff" font-family="-apple-system,BlinkMacSystemFont,Segoe UI,Helvetica,Arial,sans-serif">Go</text>
  <rect x="142" y="94" width="76" height="30" rx="6" fill="#7c3aed"/><text x="180" y="113.5" text-anchor="middle" font-size="13" font-weight="600" fill="#fff" font-family="-apple-system,BlinkMacSystemFont,Segoe UI,Helvetica,Arial,sans-serif">Kotlin</text>
  <rect x="226" y="94" width="64" height="30" rx="6" fill="#6f42c1"/><text x="258" y="113.5" text-anchor="middle" font-size="13" font-weight="600" fill="#fff" font-family="-apple-system,BlinkMacSystemFont,Segoe UI,Helvetica,Arial,sans-serif">.NET</text>
  <rect x="298" y="94" width="94" height="30" rx="6" fill="#238636"/><text x="345" y="113.5" text-anchor="middle" font-size="13" font-weight="600" fill="#fff" font-family="-apple-system,BlinkMacSystemFont,Segoe UI,Helvetica,Arial,sans-serif">Android</text>
  <rect x="400" y="94" width="88" height="30" rx="6" fill="#1f6feb"/><text x="444" y="113.5" text-anchor="middle" font-size="13" font-weight="600" fill="#fff" font-family="-apple-system,BlinkMacSystemFont,Segoe UI,Helvetica,Arial,sans-serif">Docker</text>
</svg>